<mxfile host="app.diagrams.net" modified="2023-04-12T11:44:43.953Z" agent="Mozilla/5.0 (X11; Linux x86_64; rv:109.0) Gecko/20100101 Firefox/111.0" version="21.1.5" etag="RaeCSajKN97ofZ3EnTJX" type="github">
  <diagram name="Page-1" id="sW1uCkGGWvu4Ha3cZtzi">
    <mxGraphModel>
      <root>
        <mxCell id="0" />
        <mxCell id="1" parent="0" />
      </root>
    </mxGraphModel>
  </diagram>
</mxfile>
